<?xml version="1.0" standalone="no"?>
<!DOCTYPE svg PUBLIC "-//W3C//DTD SVG 20010904//EN"
 "http://www.w3.org/TR/2001/REC-SVG-20010904/DTD/svg10.dtd">
<svg version="1.0" xmlns="http://www.w3.org/2000/svg"
 width="1280.000000pt" height="1100.000000pt" viewBox="0 0 1280.000000 1100.000000"
 preserveAspectRatio="xMidYMid meet">
<g transform="translate(0.000000,1100.000000) scale(0.100000,-0.100000)"
fill="#d7d8cd" stroke="none">
<path d="M2645 10990 c-253 -40 -535 -181 -855 -428 -123 -95 -390 -366 -512
-520 -111 -140 -403 -541 -397 -545 2 -2 21 -16 42 -31 21 -16 42 -24 46 -20
4 5 97 117 206 248 290 349 414 481 611 652 312 271 621 404 940 404 222 0
454 -73 659 -208 39 -26 136 -112 217 -192 80 -80 171 -160 201 -178 67 -41
136 -52 244 -39 136 15 473 3 591 -22 294 -62 532 -186 739 -384 l71 -69 26
17 c14 10 26 21 26 26 0 15 -62 111 -132 206 -156 209 -348 329 -615 382 -130
26 -289 41 -437 41 -67 0 -158 3 -204 7 l-82 6 -32 60 c-50 94 -108 149 -268
256 -242 161 -465 265 -670 312 -99 23 -324 33 -415 19z"/>
<path d="M3228 10398 c-29 -8 -53 -28 -106 -91 -37 -45 -71 -87 -75 -94 -4 -7
6 -21 24 -34 l32 -22 58 63 c57 61 60 63 100 57 58 -8 73 -39 49 -102 -13 -34
7 -82 49 -118 103 -86 196 54 138 208 -46 123 -138 168 -269 133z"/>
<path d="M4425 9549 c-71 -4 -160 -18 -220 -33 -55 -14 -112 -26 -126 -26 -14
0 -54 -10 -89 -22 -87 -29 -142 -86 -170 -175 -11 -36 -20 -75 -20 -87 0 -12
-18 -76 -40 -141 -27 -79 -37 -122 -30 -129 12 -12 8 -16 100 108 40 55 94
122 119 149 86 93 333 196 751 315 43 12 66 24 68 35 3 15 -8 17 -110 15 -62
0 -167 -5 -233 -9z"/>
<path d="M3496 8737 l-39 -73 28 -53 c44 -81 138 -162 252 -218 175 -85 597
-380 896 -625 422 -347 775 -685 1582 -1518 369 -381 1084 -1091 1351 -1341
624 -586 1344 -1143 2124 -1644 402 -259 631 -395 665 -395 38 0 75 25 75 50
0 48 -24 71 -144 137 -362 198 -758 464 -1121 752 -473 375 -899 770 -1605
1492 -239 244 -575 586 -745 759 -171 173 -421 432 -555 575 -701 746 -1146
1143 -1674 1495 -241 160 -394 247 -513 291 -373 137 -437 179 -510 330 l-28
59 -39 -73z"/>
<path d="M606 8541 c-169 -238 -277 -408 -348 -547 -76 -147 -98 -218 -98
-314 0 -76 32 -219 51 -231 8 -5 31 -9 52 -9 30 0 50 10 102 50 94 74 219 249
213 298 -3 23 -8 27 -39 30 -34 3 -41 -2 -134 -102 -53 -59 -102 -106 -108
-106 -47 0 99 339 295 685 47 83 110 196 141 253 l56 102 -39 20 -39 20 -105
-149z"/>
<path d="M2055 8504 c-11 -3 -45 -11 -75 -19 -57 -14 -195 -87 -311 -166 -534
-359 -779 -893 -730 -1592 14 -212 23 -255 101 -487 190 -567 430 -981 760
-1310 244 -244 618 -504 955 -663 1213 -572 2041 -856 2830 -968 83 -11 177
-30 209 -41 77 -25 154 -76 210 -139 49 -55 58 -55 105 -5 l24 26 -37 56 c-95
142 -234 232 -411 264 -588 105 -1478 373 -2120 638 -736 304 -1211 586 -1569
932 -87 84 -127 133 -201 245 -262 399 -433 823 -490 1219 -22 149 -22 402 0
536 72 444 338 813 775 1075 141 84 229 170 252 246 9 31 8 43 -8 75 -28 57
-71 77 -168 80 -45 2 -90 1 -101 -2z"/>
<path d="M433 7512 c-198 -197 -286 -406 -389 -927 l-46 -229 27 -23 c27 -24
49 -21 72 9 5 7 19 74 31 149 35 218 101 418 210 635 56 111 169 306 227 392
14 20 25 39 25 43 0 8 -47 29 -65 29 -7 0 -49 -35 -92 -78z"/>
<path d="M459 6924 c-11 -13 -14 -48 -12 -148 3 -274 71 -496 219 -723 68
-105 107 -157 279 -368 71 -88 157 -200 190 -248 57 -85 60 -88 95 -85 64 5
55 35 -71 224 -174 261 -293 462 -389 659 -109 221 -152 337 -197 525 -20 80
-39 152 -43 160 -10 22 -54 24 -71 4z"/>
<path d="M4119 2799 c-12 -12 -30 -42 -42 -68 -30 -65 -34 -235 -10 -345 16
-72 21 -82 51 -99 26 -16 38 -17 57 -9 26 12 29 36 41 334 l6 157 -26 25 c-31
31 -49 33 -77 5z"/>
<path d="M9462 2698 c-35 -35 -2 -77 298 -382 360 -366 652 -621 1390 -1216
173 -140 389 -315 480 -390 216 -178 326 -260 490 -365 173 -110 233 -130 390
-130 101 0 121 3 164 24 73 36 126 95 126 139 0 29 -8 43 -42 75 -41 39 -46
40 -113 42 -140 3 -154 12 -810 516 -325 249 -880 675 -1235 947 -355 273
-665 512 -690 532 -75 61 -160 115 -267 169 -103 51 -157 63 -181 39z"/>
<path d="M4117 2112 c-30 -21 -263 -330 -370 -492 -38 -58 -93 -155 -123 -216
-50 -103 -57 -113 -102 -137 -180 -98 -428 -157 -947 -227 -192 -26 -236 -35
-266 -54 -49 -33 -90 -76 -113 -118 l-19 -35 -91 -1 c-50 0 -124 -8 -165 -16
-62 -13 -82 -23 -128 -62 -30 -26 -70 -70 -88 -98 -39 -60 -82 -210 -91 -319
-6 -67 -5 -76 15 -96 44 -44 63 -19 104 138 23 87 43 142 57 155 17 18 37 22
123 27 69 4 113 11 137 24 61 31 160 117 230 201 l68 81 123 6 c67 4 159 7
203 6 73 -1 77 -2 43 -11 -29 -8 -56 -32 -128 -113 -101 -115 -87 -107 -262
-136 -72 -12 -81 -16 -117 -55 -43 -47 -147 -245 -180 -344 -29 -87 -30 -175
-1 -203 33 -34 50 -14 107 124 63 155 96 209 128 209 37 0 132 36 179 69 59
40 140 133 172 199 1 1 85 13 186 26 206 27 291 46 364 83 85 42 125 90 139
165 l7 37 -68 3 -68 3 55 19 c30 10 68 30 84 43 37 31 96 60 231 113 101 40
117 50 189 119 176 169 337 379 443 578 l49 92 -9 78 c-12 107 -15 119 -33
137 -20 21 -33 20 -67 -2z"/>
<path d="M4197 1233 c-4 -3 -7 -23 -7 -44 0 -59 52 -128 125 -164 59 -29 63
-30 250 -35 210 -6 236 -13 258 -71 12 -30 43 -48 92 -51 67 -4 95 2 117 27
42 49 87 32 273 -99 74 -53 143 -96 153 -96 11 0 25 7 32 15 41 49 -89 217
-246 318 -89 58 -137 77 -190 77 -36 0 -50 -7 -89 -40 -25 -22 -48 -40 -51
-40 -16 0 -44 23 -44 36 0 28 -30 74 -60 89 -40 21 -108 19 -226 -6 -145 -30
-228 -14 -302 61 -28 28 -69 39 -85 23z"/>
</g>
</svg>
