<?xml version="1.0" encoding="UTF-8" standalone="no"?>
<!-- Created with Inkscape (http://www.inkscape.org/) -->
<svg
   xmlns:dc="http://purl.org/dc/elements/1.1/"
   xmlns:cc="http://web.resource.org/cc/"
   xmlns:rdf="http://www.w3.org/1999/02/22-rdf-syntax-ns#"
   xmlns:svg="http://www.w3.org/2000/svg"
   xmlns="http://www.w3.org/2000/svg"
   xmlns:sodipodi="http://sodipodi.sourceforge.net/DTD/sodipodi-0.dtd"
   xmlns:inkscape="http://www.inkscape.org/namespaces/inkscape"
   width="539.06421"
   height="496.61044"
   id="svg2"
   sodipodi:version="0.32"
   inkscape:version="0.45"
   version="1.0"
   sodipodi:docname="crow_sil_wo_claw.svg"
   sodipodi:docbase="/home/drunken-duck/SVG/inprogress"
   inkscape:output_extension="org.inkscape.output.svg.inkscape">
  <defs
     id="defs4" />
  <sodipodi:namedview
     id="base"
     pagecolor="#ffffff"
     bordercolor="#666666"
     borderopacity="1.0"
     inkscape:pageopacity="0.0"
     inkscape:pageshadow="2"
     inkscape:zoom="0.7"
     inkscape:cx="664.1278"
     inkscape:cy="229.41156"
     inkscape:document-units="px"
     inkscape:current-layer="layer1"
     inkscape:window-width="1013"
     inkscape:window-height="739"
     inkscape:window-x="1131"
     inkscape:window-y="27" />
  <metadata
     id="metadata7">
    <rdf:RDF>
      <cc:Work
         rdf:about="">
        <dc:format>image/svg+xml</dc:format>
        <dc:type
           rdf:resource="http://purl.org/dc/dcmitype/StillImage" />
      </cc:Work>
    </rdf:RDF>
  </metadata>
  <g
     inkscape:label="Ebene 1"
     inkscape:groupmode="layer"
     id="layer1"
     transform="translate(-14.282702,-18.745498)">
    <path
       style="fill:#000000"
       d="M 132.74027,430.51605 C 133.80779,427.93889 143.78544,422.13236 146.10645,422.73751 C 146.76615,422.90957 149.60162,422.51534 152.40742,421.86151 C 156.72867,420.85453 158.34296,420.76179 162.96174,421.25506 C 168.23511,421.81826 168.5395,421.78008 172.21112,420.09628 C 174.29921,419.13867 176.01365,418.02975 176.021,417.632 C 176.02835,417.23426 176.8401,416.73185 177.82496,416.51549 C 178.86122,416.28789 179.74698,415.61966 179.9275,414.92931 C 180.09907,414.27325 180.90334,413.48399 181.71472,413.17552 C 182.52616,412.86704 183.56223,412.16613 184.01719,411.61794 C 184.47209,411.06976 185.92025,410.01657 187.23533,409.27748 C 188.55035,408.53838 189.62628,407.75431 189.62628,407.53511 C 189.62628,407.31591 191.74606,405.49045 194.33687,403.4786 C 199.94725,399.12202 210.81289,390.28065 211.24981,389.71665 C 211.4197,389.49732 214.6864,386.43722 218.50913,382.91642 C 222.33186,379.39561 225.45955,376.10358 225.45955,375.6008 C 225.45955,375.09796 224.02412,372.7562 222.26965,370.39682 C 219.65018,366.87417 217.79976,365.25938 211.92125,361.36616 C 207.9841,358.75861 203.56876,355.71679 202.10942,354.60658 C 200.65007,353.49631 197.35817,351.59238 194.79405,350.3756 C 189.67545,347.9466 186.86476,346.08493 177.50085,338.92143 C 174.05993,336.2891 170.02868,333.37302 168.54253,332.44129 C 165.10921,330.28876 146.08952,311.19642 140.88406,304.67717 C 138.71349,301.95878 136.28189,299.1683 135.48052,298.47604 C 134.67916,297.78377 133.39781,296.04567 132.63307,294.61358 C 128.25165,286.40819 124.70101,280.37937 123.81846,279.64695 C 123.2649,279.18748 122.22159,277.68093 121.50011,276.29901 C 120.5226,274.42665 120.12732,274.07061 119.94884,274.90175 C 119.54577,276.77911 118.52224,275.77232 116.90881,271.91153 C 116.06179,269.88454 114.85118,267.66436 114.21854,266.97784 C 112.73436,265.3672 108.35547,252.80158 107.21146,246.87049 C 106.72426,244.34449 105.88662,241.44379 105.35005,240.4244 C 104.81348,239.405 104.21086,237.59789 104.01087,236.4086 C 103.56463,233.7552 101.89745,228.29112 101.27747,227.45028 C 100.13445,225.90006 96.724301,211.05816 95.713861,203.236 C 95.398101,200.79168 94.593021,197.59448 93.924791,196.13113 C 93.256501,194.66777 92.430671,192.49739 92.089641,191.30809 C 91.748541,190.1188 90.505191,186.31923 89.326641,182.8646 C 86.426371,174.36321 85.359651,165.13133 86.348161,157.08738 C 87.330731,149.09226 87.310531,148.32707 86.142241,149.29664 C 85.632541,149.71965 85.215521,150.43233 85.215521,150.88037 C 85.215521,151.3284 84.894131,151.8936 84.501381,152.13636 C 83.222941,152.92647 84.489461,145.79506 86.525651,140.73786 C 88.131661,136.74932 88.478631,134.92715 88.753871,129.03695 C 89.008721,123.58357 88.908571,122.09973 88.295081,122.24098 C 87.250291,122.48156 85.718601,116.81982 86.148731,114.30731 C 86.374851,112.98685 86.208711,112.2669 85.626421,112.04345 C 84.250061,111.51529 83.866271,107.14767 84.929221,104.10937 L 85.871511,101.41597 L 84.282861,103.11496 C 82.098211,105.45139 81.279351,105.30292 81.775151,102.66025 C 82.351261,99.589317 80.365481,96.094467 78.344731,96.622907 C 77.592111,96.819717 77.191391,96.369337 76.887311,94.984907 C 76.597241,93.664087 76.104351,93.075457 75.288461,93.075457 C 73.711061,93.075457 71.652191,91.248577 72.052841,90.204447 C 72.259191,89.666767 71.914701,89.368567 71.08732,89.368567 C 70.011456,89.368567 69.857003,89.088707 70.143174,87.657867 C 70.399197,86.377717 70.091772,85.522487 68.921569,84.259877 C 68.06157,83.331877 67.089747,82.572607 66.762058,82.572607 C 66.434368,82.572607 66.073564,82.330037 65.960257,82.033567 C 65.847012,81.737087 64.331511,80.777987 62.592547,79.902217 L 59.430754,78.309907 L 36.76676,78.209807 C 16.906968,78.122097 14.125873,77.994137 14.289224,77.175677 C 15.043143,73.398947 44.800704,63.261857 62.665264,60.696107 C 66.403045,60.159277 73.458431,59.136877 78.343871,58.424097 C 83.229361,57.711327 88.453051,57.109607 89.952181,57.086947 C 91.451251,57.064287 92.807601,56.835667 92.966321,56.578907 C 94.385371,54.282747 59.258816,40.290277 45.05753,37.494727 C 36.379328,35.786407 21.434688,34.406707 18.580753,35.050367 C 15.537148,35.736807 15.008237,34.946247 16.959544,32.627277 C 20.48004,28.443387 33.11541,24.282527 44.306699,23.621757 C 68.118841,22.215817 80.298141,22.197987 91.084761,23.553287 C 100.05717,24.680647 100.71372,24.592577 103.76461,21.852377 C 105.93907,19.899367 106.78548,19.526977 108.91948,19.584437 C 110.32371,19.622247 113.54104,19.379577 116.06902,19.045177 C 122.29697,18.221347 139.35015,19.188987 147.25725,20.814867 C 158.89133,23.207107 169.39493,27.341057 176.03434,32.140867 C 178.24303,33.737577 181.04204,35.700837 182.25444,36.503667 C 183.46678,37.306497 184.97221,38.747057 185.59985,39.704917 C 186.22743,40.662777 188.36321,43.423037 190.34597,45.838827 C 192.32872,48.254617 193.95098,50.493037 193.95098,50.813097 C 193.95098,51.133147 194.60469,52.363097 195.40365,53.546327 C 196.20255,54.729547 197.21175,56.809707 197.64632,58.168897 C 198.08083,59.528097 199.20321,62.169257 200.1405,64.038147 C 201.07779,65.907037 202.26245,68.270177 202.77301,69.289567 C 204.28209,72.302697 205.42399,75.200127 206.91219,79.792437 C 207.68303,82.171027 209.38839,85.967877 210.70193,88.229897 C 213.93273,93.793747 214.52083,95.362877 214.64939,98.762517 C 214.70988,100.36132 215.1072,102.08852 215.53231,102.60077 C 215.95743,103.11301 216.41505,104.72408 216.54918,106.18094 C 216.69609,107.77644 217.19893,109.07542 217.81384,109.44757 C 218.37525,109.78736 220.11669,110.96606 221.68371,112.06689 C 223.25074,113.16773 225.78391,114.77584 227.313,115.64047 C 228.84209,116.5051 231.10879,117.96756 232.35011,118.89039 C 242.34407,126.32015 247.38136,130.35262 251.09888,133.89912 C 253.47747,136.16829 257.40925,139.37947 259.83621,141.03505 C 266.01646,145.251 275.65475,153.89979 280.07528,159.19629 C 281.06119,160.37755 283.27488,163.29017 284.99463,165.66876 C 286.71438,168.04735 289.53434,171.80058 291.26125,174.00927 C 292.98817,176.21796 295.11833,179.13713 295.99495,180.49633 C 296.87157,181.85552 298.94403,185.05271 300.60039,187.6012 C 302.25682,190.14969 303.72394,192.51283 303.86067,192.85263 C 303.99739,193.19243 305.96235,196.38962 308.2272,199.9575 C 310.49199,203.52539 313.18683,207.97365 314.21574,209.84255 C 322.29238,224.51368 323.92977,226.69772 331.07036,232.32416 C 335.90427,236.13311 336.79046,236.70663 343.17076,240.15509 C 347.70281,242.6046 351.82129,245.2562 355.3395,247.98979 C 357.20616,249.44011 363.65615,255.98197 369.70413,262.55892 C 372.41405,265.50596 374.95581,267.91717 375.35244,267.91717 C 375.74902,267.91717 378.71126,270.48882 381.9352,273.63196 C 385.15915,276.77509 388.59476,279.94189 389.56991,280.66931 C 390.54507,281.39672 392.23764,283.75986 393.33111,285.92074 C 395.85353,290.90514 399.45496,295.22738 404.91298,299.82053 C 407.27952,301.81211 410.05969,304.38902 411.09113,305.54699 C 413.03972,307.73474 415.03249,309.73535 416.46007,310.93712 C 422.05779,315.64932 434.74629,331.77386 439.00235,339.58373 C 439.6505,340.77302 440.70178,342.5249 441.33856,343.47676 C 443.18805,346.24149 441.84356,346.92479 437.82857,345.26064 C 434.32821,343.80983 432.42763,343.54479 432.42763,344.50747 C 432.42763,344.83695 433.02326,346.15753 433.75123,347.44209 C 437.28217,353.67257 437.98796,355.37545 437.98796,357.66427 C 437.98796,359.72419 437.59349,360.48695 435.5167,362.44289 C 434.15751,363.723 433.05428,365.01121 433.06509,365.30559 C 433.07584,365.59998 434.95245,367.14872 437.23534,368.7472 C 444.22271,373.63986 446.79751,375.90638 452.03418,381.7742 C 453.23558,383.12042 454.99598,384.2732 456.44704,384.66397 C 458.05404,385.09669 459.55459,386.15445 460.93529,387.82798 C 462.07608,389.21065 463.94275,391.22362 465.08348,392.30115 C 470.87958,397.77654 472.33385,399.06932 474.08202,400.30019 C 475.12786,401.03656 477.92971,403.2004 480.3083,405.10871 C 482.68689,407.01701 485.88408,409.31176 487.41318,410.20815 C 488.94227,411.10448 491.0602,412.65853 492.11969,413.66155 C 493.17924,414.66458 495.95941,416.7447 498.29784,418.28405 C 500.63633,419.8234 503.80072,421.93608 505.32981,422.97882 C 509.08897,425.54239 511.35901,427.00494 518.61284,431.53692 C 525.88051,436.07756 530.88216,440.60781 530.45043,442.25886 C 530.23641,443.07709 530.51517,443.38439 531.49033,443.40546 C 532.5177,443.42764 533.32506,444.45278 535.01806,447.88462 C 536.69573,451.28545 537.71562,452.58755 539.34276,453.40585 C 542.0614,454.77307 548.61815,461.91446 550.83882,465.92692 C 551.81058,467.68269 552.58545,470.0826 552.63407,471.48726 C 552.68114,472.84645 552.93167,474.84873 553.19084,475.9367 C 553.9885,479.28582 551.83511,479.18048 544.25217,475.49954 C 529.81093,468.4895 524.28858,466.37076 528.34343,469.39602 C 529.27787,470.09316 530.04242,470.95155 530.04242,471.30352 C 530.04242,472.2759 534.33549,479.22966 536.48308,481.73589 C 541.18824,487.22684 544.86998,492.39863 544.86998,493.51707 C 544.86998,494.18777 545.15999,495.27839 545.51443,495.94069 C 546.00707,496.86124 545.94659,497.2263 545.25766,497.49073 C 544.70775,497.70171 541.57623,495.59051 537.22557,492.07564 C 528.42683,484.96731 521.57947,479.64322 517.22084,476.52128 C 514.06405,474.2602 513.85659,474.1986 513.05652,475.28565 C 512.24916,476.38258 511.90083,476.32259 504.60191,473.82977 C 494.61301,470.41819 480.94403,465.45553 477.83704,464.11259 C 476.47785,463.52504 472.72462,462.12501 469.49654,461.00127 C 466.26845,459.87759 461.61167,458.12386 459.14813,457.10415 C 456.68459,456.08439 454.66897,455.50451 454.66897,455.81558 C 454.66897,456.53014 457.36586,460.91885 467.33647,476.42972 C 469.3023,479.4879 471.91306,483.57308 473.13825,485.50796 C 474.98533,488.42503 475.73511,491.11048 477.52813,491.42266 C 481.58175,503.8354 481.55654,507.47224 489.65953,514.32837 C 487.93482,521.53527 437.04765,488.44619 439.93593,489.14407 C 330.10922,480.84656 91.766736,501.56872 132.74027,430.51605 z M 431.5811,478.26945 C 431.13553,477.10833 421.35799,463.40957 417.78745,458.94394 C 416.17242,456.92406 411.78488,453.21321 406.34458,449.26587 C 395.34235,441.28308 393.0243,439.40115 384.46244,431.50035 L 377.58201,425.15112 L 368.75405,423.37256 C 359.27164,421.46209 348.05681,417.93183 336.66628,413.27177 C 330.10811,410.58873 313.31225,402.48917 308.24678,399.5669 C 301.6125,395.73966 292.8617,392.52406 291.47391,393.40346 C 290.81976,393.81801 290.86523,393.93459 291.68378,393.94201 C 292.25835,393.9472 292.90032,394.22948 293.11031,394.56927 C 293.32686,394.9197 292.80783,395.18709 291.91113,395.18709 C 290.91769,395.18709 290.33014,394.84272 290.33014,394.26037 C 290.33014,392.81505 289.3674,393.17005 288.57586,394.90728 C 287.60737,397.03294 287.66748,398.15631 288.67594,396.77716 C 289.44105,395.73077 289.61583,395.72329 291.42541,396.65903 C 292.48823,397.20864 293.73554,397.65835 294.19717,397.65835 C 294.6588,397.65835 295.57614,398.05666 296.23578,398.54349 C 297.19697,399.25293 297.28174,399.58402 296.66275,400.21159 C 295.5319,401.35814 295.7191,402.81439 297.10887,403.68236 C 297.81924,404.12601 298.17887,404.82976 297.97147,405.37029 C 297.76079,405.91922 298.05518,406.46598 298.6932,406.71082 C 299.70716,407.09992 299.70394,407.17314 298.63926,407.95164 C 297.62339,408.69451 297.61449,408.77902 298.55258,408.77902 C 299.33474,408.77902 299.59737,409.32251 299.59737,410.94138 C 299.59737,412.7761 299.38676,413.10163 298.20729,413.0897 C 296.96937,413.07722 291.77398,410.55617 288.04145,408.15676 C 287.29235,407.67523 286.4932,407.46752 286.26554,407.69513 C 285.81274,408.14792 287.86543,410.89374 291.32563,414.46391 C 292.5447,415.72172 293.44498,417.04181 293.32624,417.39736 C 293.20749,417.75297 290.33014,416.38247 286.93216,414.35184 C 280.25,410.35859 278.73622,409.82937 279.82729,411.8681 C 280.19099,412.54769 280.84736,413.10373 281.28589,413.10373 C 282.40765,413.10373 284.98981,415.98392 284.26796,416.43005 C 283.94082,416.63226 282.46029,415.70522 280.97797,414.37 C 279.49558,413.03484 277.79622,411.50865 277.20157,410.97851 C 276.60693,410.44842 275.88272,410.01465 275.59223,410.01465 C 274.10867,410.01465 250.78997,437.41333 250.78997,439.15644 C 250.78997,439.39714 252.11055,439.76177 253.7246,439.9667 C 257.16101,440.40306 258.27011,440.61343 261.60174,441.46064 C 262.96093,441.80625 268.24325,443.08105 273.34023,444.29351 C 282.12154,446.38234 285.29674,447.04964 292.4925,448.31839 C 294.19149,448.61797 297.6667,449.44182 300.21519,450.14916 C 302.76367,450.85656 306.23888,451.69178 307.93788,452.0052 C 309.63687,452.31862 313.80712,453.25047 317.2051,454.07599 C 320.60309,454.90146 326.44144,456.16687 330.17922,456.88792 C 337.045,458.21245 342.3377,459.41033 346.86023,460.66326 C 349.59005,461.41953 357.92783,463.28879 365.08578,464.74918 C 367.63426,465.26914 374.02865,466.65156 379.29553,467.82121 C 389.2864,470.03997 395.18375,471.28474 400.91906,472.38544 C 407.41186,473.63145 412.9806,474.8297 415.43771,475.50942 C 416.7969,475.88542 420.53289,476.73875 423.73985,477.40568 C 426.94687,478.07268 429.70387,478.75147 429.86654,478.91414 C 430.59346,479.64106 431.91657,479.14353 431.5811,478.26945 z M 238.20292,432.71936 C 243.48802,427.02965 260.0572,404.38759 260.0572,402.85516 C 260.0572,402.39291 259.22315,401.58345 258.20376,401.05633 C 256.43891,400.1437 256.35031,400.15772 256.35031,401.34936 C 256.35031,403.32279 255.13667,402.83422 252.16968,399.66625 C 250.65801,398.05221 249.72993,397.3403 250.10729,398.08421 C 250.86529,399.5787 250.06027,400.57475 249.08375,399.35055 C 248.74791,398.9295 247.99597,397.64618 247.41275,396.49865 C 246.02087,393.76006 242.79353,390.24457 241.67133,390.24457 C 241.1827,390.24457 239.97481,389.3795 238.98711,388.32224 C 237.20459,386.41399 237.17901,386.40794 235.49571,387.49344 C 230.908,390.45215 216.72062,402.74031 207.58029,411.67194 C 201.95305,417.17074 197.1158,421.94188 196.83086,422.27451 C 196.54587,422.60708 195.64231,423.61159 194.82297,424.50662 C 194.00356,425.40171 193.33317,426.34684 193.33317,426.60694 C 193.33317,427.27981 212.73577,431.21566 216.81014,431.36925 C 224.06582,431.64282 232.36283,432.79591 233.6765,433.7133 C 235.62385,435.07317 236.11717,434.96481 238.20292,432.71936 z M 441.12579,339.9441 C 441.09897,339.29286 441.24502,338.92792 441.45032,339.13322 C 441.65562,339.33852 441.67756,339.87138 441.49907,340.31738 C 441.30186,340.81021 441.15544,340.66385 441.12579,339.9441 z "
       id="path2182"
       sodipodi:nodetypes="csssssssssssssssssssssssssssssssssssssssssssssscccsssssssssscccssssssssssssssssssssssssssssssssssssssssssssssssssssssssssssssssssssssssssssssssssssssssssssssssscccccsscccsssssssssssssssssssssssssssssssssssssssssssssssccssssssssssssssssccssc" />
  </g>
</svg>
